<svg width="32" height="46" viewBox="0 0 32 46" fill="none" xmlns="http://www.w3.org/2000/svg">
<g filter="url(#filter0_d_9_714)">
<rect x="2" y="2" width="28" height="42" rx="5" fill="url(#paint0_linear_9_714)"/>
</g>
<mask id="mask0_9_714" style="mask-type:alpha" maskUnits="userSpaceOnUse" x="2" y="2" width="28" height="42">
<rect x="2" y="2" width="28" height="42" rx="5" fill="white"/>
</mask>
<g mask="url(#mask0_9_714)">
<path fill-rule="evenodd" clip-rule="evenodd" d="M9 14C9 12.3431 10.3431 11 12 11H20C21.6569 11 23 12.3431 23 14V30.1133C23 31.9033 20.8289 32.7919 19.5739 31.5156L16 27.8808L12.4261 31.5156C11.1711 32.7919 9 31.9033 9 30.1133V14Z" fill="url(#paint1_linear_9_714)"/>
</g>
<defs>
<filter id="filter0_d_9_714" x="0" y="0" width="32" height="46" filterUnits="userSpaceOnUse" color-interpolation-filters="sRGB">
<feFlood flood-opacity="0" result="BackgroundImageFix"/>
<feColorMatrix in="SourceAlpha" type="matrix" values="0 0 0 0 0 0 0 0 0 0 0 0 0 0 0 0 0 0 127 0" result="hardAlpha"/>
<feOffset/>
<feGaussianBlur stdDeviation="1"/>
<feColorMatrix type="matrix" values="0 0 0 0 0.733333 0 0 0 0 0.733333 0 0 0 0 0.733333 0 0 0 0.5 0"/>
<feBlend mode="normal" in2="BackgroundImageFix" result="effect1_dropShadow_9_714"/>
<feBlend mode="normal" in="SourceGraphic" in2="effect1_dropShadow_9_714" result="shape"/>
</filter>
<linearGradient id="paint0_linear_9_714" x1="-0.778516" y1="-6.33555" x2="-0.778516" y2="44" gradientUnits="userSpaceOnUse">
<stop stop-color="#F5F4FF"/>
<stop offset="1" stop-color="#D2E7FF"/>
</linearGradient>
<linearGradient id="paint1_linear_9_714" x1="5.56538" y1="3.41007" x2="9.04895" y2="28.3621" gradientUnits="userSpaceOnUse">
<stop stop-color="#FF4D2A"/>
<stop offset="0.999796" stop-color="#A121F3"/>
<stop offset="1" stop-color="#9E1CF7"/>
</linearGradient>
</defs>
</svg>
