<svg width="23px" height="22px" viewBox="0 0 23 22" version="1.1" xmlns="http://www.w3.org/2000/svg" xmlns:xlink="http://www.w3.org/1999/xlink">
    <g id="All_pages" stroke="none" stroke-width="1" fill="none" fill-rule="evenodd">
        <g id="Targemy---post---read-Copy-2" transform="translate(-1254.000000, -1721.000000)" fill="#5333BE">
            <g id="Group" transform="translate(1230.000000, 1622.000000)">
                <g id="Group-4" transform="translate(24.000000, 99.000000)">
                    <path d="M20.125,0 C21.7107422,0 23,1.23313104 23,2.74983926 L23,2.74983926 L23,15.1241159 C23,16.6408241 21.7107422,17.8739552 20.125,17.8739552 L20.125,17.8739552 L13.65625,17.8739552 L8.04550781,21.8998917 C7.690625,22.1490959 7.1875,21.9041883 7.1875,21.4831192 L7.1875,21.4831192 L7.1875,17.8739552 L2.875,17.8739552 C1.28925781,17.8739552 0,16.6408241 0,15.1241159 L0,15.1241159 L0,2.74983926 C0,1.23313104 1.28925781,0 2.875,0 L2.875,0 Z M4.23684211,8.55555556 C3.23400927,8.55555556 2.42105263,9.37636685 2.42105263,10.3888889 C2.42105263,11.4014109 3.23400927,12.2222222 4.23684211,12.2222222 C5.23967494,12.2222222 6.05263158,11.4014109 6.05263158,10.3888889 C6.05263158,9.37636685 5.23967494,8.55555556 4.23684211,8.55555556 Z M11.5,8.55555556 C10.4971672,8.55555556 9.68421053,9.37636685 9.68421053,10.3888889 C9.68421053,11.4014109 10.4971672,12.2222222 11.5,12.2222222 C12.5028328,12.2222222 13.3157895,11.4014109 13.3157895,10.3888889 C13.3157895,9.37636685 12.5028328,8.55555556 11.5,8.55555556 Z M18.7631579,8.55555556 C17.7603251,8.55555556 16.9473684,9.37636685 16.9473684,10.3888889 C16.9473684,11.4014109 17.7603251,12.2222222 18.7631579,12.2222222 C19.7659907,12.2222222 20.5789474,11.4014109 20.5789474,10.3888889 C20.5789474,9.37636685 19.7659907,8.55555556 18.7631579,8.55555556 Z" id="comment_hover"></path>
                </g>
            </g>
        </g>
    </g>
</svg>