<svg width="32" height="46" viewBox="0 0 32 46" fill="none" xmlns="http://www.w3.org/2000/svg">
<g filter="url(#filter0_d_9_928)">
<rect x="2" y="2" width="28" height="42" rx="5" fill="url(#paint0_linear_9_928)"/>
</g>
<rect x="7" y="9" width="18" height="28" rx="3" fill="url(#paint1_linear_9_928)"/>
<path fill-rule="evenodd" clip-rule="evenodd" d="M10 9C8.34315 9 7 10.3431 7 12V34C7 35.6569 8.34315 37 10 37H22C23.6569 37 25 35.6569 25 34V28.6621C24.8569 28.7026 24.706 28.7244 24.55 28.7244H20.8375L17.6174 31.1399C17.4137 31.2895 17.125 31.1425 17.125 30.8899V28.7244H14.65C13.7399 28.7244 13 27.9845 13 27.0745V19.6499C13 18.7399 13.7399 18 14.65 18H24.55C24.706 18 24.8569 18.0217 25 18.0623V12C25 10.3431 23.6569 9 22 9H10ZM17.4 24.6C17.4 23.9925 16.9075 23.5 16.3 23.5C15.6925 23.5 15.2 23.9925 15.2 24.6C15.2 25.2075 15.6925 25.7 16.3 25.7C16.9075 25.7 17.4 25.2075 17.4 24.6ZM19.6 23.5C20.2075 23.5 20.7 23.9925 20.7 24.6C20.7 25.2075 20.2075 25.7 19.6 25.7C18.9925 25.7 18.5 25.2075 18.5 24.6C18.5 23.9925 18.9925 23.5 19.6 23.5ZM24 24.6C24 23.9925 23.5075 23.5 22.9 23.5C22.2925 23.5 21.8 23.9925 21.8 24.6C21.8 25.2075 22.2925 25.7 22.9 25.7C23.5075 25.7 24 25.2075 24 24.6Z" fill="url(#paint2_linear_9_928)"/>
<defs>
<filter id="filter0_d_9_928" x="0" y="0" width="32" height="46" filterUnits="userSpaceOnUse" color-interpolation-filters="sRGB">
<feFlood flood-opacity="0" result="BackgroundImageFix"/>
<feColorMatrix in="SourceAlpha" type="matrix" values="0 0 0 0 0 0 0 0 0 0 0 0 0 0 0 0 0 0 127 0" result="hardAlpha"/>
<feOffset/>
<feGaussianBlur stdDeviation="1"/>
<feColorMatrix type="matrix" values="0 0 0 0 0.733333 0 0 0 0 0.733333 0 0 0 0 0.733333 0 0 0 0.5 0"/>
<feBlend mode="normal" in2="BackgroundImageFix" result="effect1_dropShadow_9_928"/>
<feBlend mode="normal" in="SourceGraphic" in2="effect1_dropShadow_9_928" result="shape"/>
</filter>
<linearGradient id="paint0_linear_9_928" x1="-0.778516" y1="-6.33555" x2="-0.778516" y2="44" gradientUnits="userSpaceOnUse">
<stop stop-color="#F5F4FF"/>
<stop offset="1" stop-color="#D2E7FF"/>
</linearGradient>
<linearGradient id="paint1_linear_9_928" x1="24.6537" y1="9.26937" x2="7" y2="9.26937" gradientUnits="userSpaceOnUse">
<stop stop-color="#F5F4FF"/>
<stop offset="1" stop-color="#D2E7FF"/>
</linearGradient>
<linearGradient id="paint2_linear_9_928" x1="35.1063" y1="29.5205" x2="15.2917" y2="-17.8214" gradientUnits="userSpaceOnUse">
<stop stop-color="#2B17E4"/>
<stop offset="0.529904" stop-color="#5937B9"/>
<stop offset="1" stop-color="#C86DD7"/>
</linearGradient>
</defs>
</svg>
