<svg width="23px" height="22px" viewBox="0 0 23 22" version="1.1" xmlns="http://www.w3.org/2000/svg" xmlns:xlink="http://www.w3.org/1999/xlink">
    <g id="All_pages" stroke="none" stroke-width="1" fill="none" fill-rule="evenodd">
        <g id="Targemy---post---read-Copy-2" transform="translate(-1254.000000, -1801.000000)" fill="#5333BE" fill-rule="nonzero">
            <g id="Group" transform="translate(1230.000000, 1622.000000)">
                <g id="share_hover" transform="translate(24.000000, 179.000000)">
                    <path d="M22.6208026,9.38427665 L15.3574934,16.5757876 C14.591886,17.3338882 13.3157895,16.7718308 13.3157895,15.6530573 L13.3157895,11.8473235 C6.02362938,11.8986216 2.94732895,13.7042601 5.00476973,20.9092566 C5.23088596,21.7010976 4.35683552,22.3142415 3.74350219,21.8257466 C1.7780614,20.2603627 0,17.2661959 0,14.2438945 C0,6.63184529 5.9315285,5.12130275 13.3157895,5.07836046 L13.3157895,1.26987673 C13.3157895,0.150098427 14.5927434,-0.410160917 15.3574934,0.347146409 L22.6208026,7.538816 C23.1261974,8.03926287 23.1266009,8.8834067 22.6208026,9.38427665 Z"></path>
                </g>
            </g>
        </g>
    </g>
</svg>