<?xml version="1.0" encoding="UTF-8"?>
<svg width="34px" height="34px" viewBox="0 0 34 34" version="1.1" xmlns="http://www.w3.org/2000/svg" xmlns:xlink="http://www.w3.org/1999/xlink">
    <title>close_button</title>
    <defs>
        <linearGradient x1="50%" y1="-19.846549%" x2="50%" y2="100%" id="linearGradient-1">
            <stop stop-color="#F5F4FF" offset="0%"></stop>
            <stop stop-color="#D2E7FF" offset="100%"></stop>
        </linearGradient>
        <circle id="path-2" cx="15" cy="15" r="15"></circle>
        <filter x="-10.0%" y="-10.0%" width="120.0%" height="120.0%" filterUnits="objectBoundingBox" id="filter-3">
            <feOffset dx="0" dy="0" in="SourceAlpha" result="shadowOffsetOuter1"></feOffset>
            <feGaussianBlur stdDeviation="1" in="shadowOffsetOuter1" result="shadowBlurOuter1"></feGaussianBlur>
            <feColorMatrix values="0 0 0 0 0.475203804   0 0 0 0 0.475203804   0 0 0 0 0.475203804  0 0 0 0.5 0" type="matrix" in="shadowBlurOuter1"></feColorMatrix>
        </filter>
        <linearGradient x1="63.5045016%" y1="98.2140089%" x2="13.6514662%" y2="-87.0695753%" id="linearGradient-4">
            <stop stop-color="#2B17E4" offset="0%"></stop>
            <stop stop-color="#5937B9" offset="52.9903927%"></stop>
            <stop stop-color="#C86DD7" offset="100%"></stop>
        </linearGradient>
    </defs>
    <g id="All_pages" stroke="none" stroke-width="1" fill="none" fill-rule="evenodd">
        <g id="Targemy---card-post" transform="translate(-1634.000000, -184.000000)">
            <g id="comments_block" transform="translate(1211.000000, 16.000000)">
                <g id="Group-2" transform="translate(20.000000, 170.000000)">
                    <g id="Group" transform="translate(405.000000, 0.000000)">
                        <g id="Oval">
                            <use fill="black" fill-opacity="1" filter="url(#filter-3)" xlink:href="#path-2"></use>
                            <use fill="url(#linearGradient-1)" fill-rule="evenodd" xlink:href="#path-2"></use>
                        </g>
                        <path d="M15,6.5625 C16.0355339,6.5625 16.875,7.40196609 16.875,8.4375 L16.8745,13.1245 L21.5625,13.125 C22.5980339,13.125 23.4375,13.9644661 23.4375,15 C23.4375,16.0355339 22.5980339,16.875 21.5625,16.875 L16.8745,16.8745 L16.875,21.5625 C16.875,22.5980339 16.0355339,23.4375 15,23.4375 C13.9644661,23.4375 13.125,22.5980339 13.125,21.5625 L13.1245,16.8745 L8.4375,16.875 C7.40196609,16.875 6.5625,16.0355339 6.5625,15 C6.5625,13.9644661 7.40196609,13.125 8.4375,13.125 L13.1245,13.1245 L13.125,8.4375 C13.125,7.40196609 13.9644661,6.5625 15,6.5625 Z" id="Combined-Shape" fill="url(#linearGradient-4)" transform="translate(15.000000, 15.000000) rotate(45.000000) translate(-15.000000, -15.000000) "></path>
                    </g>
                </g>
            </g>
        </g>
    </g>
</svg>