<svg width="32" height="46" viewBox="0 0 32 46" fill="none" xmlns="http://www.w3.org/2000/svg">
<g filter="url(#filter0_d_9_708)">
<rect x="2" y="2" width="28" height="42" rx="5" fill="url(#paint0_linear_9_708)"/>
<rect x="8" y="30" width="15" height="2" rx="1" fill="url(#paint1_linear_9_708)"/>
<rect x="8" y="33" width="8" height="2" rx="1" fill="url(#paint2_linear_9_708)"/>
<path fill-rule="evenodd" clip-rule="evenodd" d="M20.2147 9.56445C19.2883 8.96286 18.0497 9.22614 17.4481 10.1525L10.4108 20.989L15.4428 24.2569L22.4801 13.4203C23.0817 12.494 22.8184 11.2553 21.8921 10.6537L20.2147 9.56445ZM10.1184 28.3089C9.40871 28.7239 8.52933 28.1528 8.61974 27.3357L9.13557 22.6736L14.1676 25.9415L10.1184 28.3089Z" fill="url(#paint3_linear_9_708)"/>
</g>
<defs>
<filter id="filter0_d_9_708" x="0" y="0" width="32" height="46" filterUnits="userSpaceOnUse" color-interpolation-filters="sRGB">
<feFlood flood-opacity="0" result="BackgroundImageFix"/>
<feColorMatrix in="SourceAlpha" type="matrix" values="0 0 0 0 0 0 0 0 0 0 0 0 0 0 0 0 0 0 127 0" result="hardAlpha"/>
<feOffset/>
<feGaussianBlur stdDeviation="1"/>
<feColorMatrix type="matrix" values="0 0 0 0 0.733333 0 0 0 0 0.733333 0 0 0 0 0.733333 0 0 0 0.5 0"/>
<feBlend mode="normal" in2="BackgroundImageFix" result="effect1_dropShadow_9_708"/>
<feBlend mode="normal" in="SourceGraphic" in2="effect1_dropShadow_9_708" result="shape"/>
</filter>
<linearGradient id="paint0_linear_9_708" x1="-0.778516" y1="-6.33555" x2="-0.778516" y2="44" gradientUnits="userSpaceOnUse">
<stop stop-color="#F5F4FF"/>
<stop offset="1" stop-color="#D2E7FF"/>
</linearGradient>
<linearGradient id="paint1_linear_9_708" x1="31.4219" y1="31.4657" x2="31.2796" y2="27.4969" gradientUnits="userSpaceOnUse">
<stop stop-color="#2B17E4"/>
<stop offset="0.529904" stop-color="#5937B9"/>
<stop offset="1" stop-color="#C86DD7"/>
</linearGradient>
<linearGradient id="paint2_linear_9_708" x1="20.4917" y1="34.4657" x2="20.2256" y2="30.5097" gradientUnits="userSpaceOnUse">
<stop stop-color="#2B17E4"/>
<stop offset="0.529904" stop-color="#5937B9"/>
<stop offset="1" stop-color="#C86DD7"/>
</linearGradient>
<linearGradient id="paint3_linear_9_708" x1="17.7766" y1="27.0052" x2="12.016" y2="-3.78835" gradientUnits="userSpaceOnUse">
<stop stop-color="#2B17E4"/>
<stop offset="0.529904" stop-color="#5937B9"/>
<stop offset="1" stop-color="#C86DD7"/>
</linearGradient>
</defs>
</svg>
