<svg width="17" height="17" viewBox="0 0 17 17" fill="none" xmlns="http://www.w3.org/2000/svg">
<circle cx="8.5" cy="8.5" r="8.5" fill="url(#paint0_linear_9_774)"/>
<path fill-rule="evenodd" clip-rule="evenodd" d="M4.67502 3.40002H12.325C13.0283 3.40002 13.6 3.97175 13.6 4.67495V10.4121C13.6 11.1153 13.0283 11.687 12.325 11.687H9.45627L6.96803 13.5536C6.81065 13.6692 6.58752 13.5556 6.58752 13.3604V11.687H4.67502C3.97178 11.687 3.40002 11.1153 3.40002 10.4121V4.67495C3.40002 3.97175 3.97178 3.40002 4.67502 3.40002ZM5.95002 7.65002C6.41947 7.65002 6.80002 8.03058 6.80002 8.50002C6.80002 8.96947 6.41947 9.35002 5.95002 9.35002C5.48058 9.35002 5.10002 8.96947 5.10002 8.50002C5.10002 8.03058 5.48058 7.65002 5.95002 7.65002ZM9.35002 8.50002C9.35002 8.03058 8.96947 7.65002 8.50002 7.65002C8.03058 7.65002 7.65002 8.03058 7.65002 8.50002C7.65002 8.96947 8.03058 9.35002 8.50002 9.35002C8.96947 9.35002 9.35002 8.96947 9.35002 8.50002ZM11.05 7.65002C11.5195 7.65002 11.9 8.03058 11.9 8.50002C11.9 8.96947 11.5195 9.35002 11.05 9.35002C10.5806 9.35002 10.2 8.96947 10.2 8.50002C10.2 8.03058 10.5806 7.65002 11.05 7.65002Z" fill="#5333BE"/>
<defs>
<linearGradient id="paint0_linear_9_774" x1="16.6729" y1="0.163548" x2="0" y2="0.163548" gradientUnits="userSpaceOnUse">
<stop stop-color="#F5F4FF"/>
<stop offset="1" stop-color="#D2E7FF"/>
</linearGradient>
</defs>
</svg>
