<svg width="32" height="46" viewBox="0 0 32 46" fill="none" xmlns="http://www.w3.org/2000/svg">
<g filter="url(#filter0_d_9_704)">
<rect x="2" y="2" width="28" height="42" rx="5" fill="url(#paint0_linear_9_704)"/>
<path fill-rule="evenodd" clip-rule="evenodd" d="M12.7778 12.6655C13.1808 11.0634 14.8031 10.0886 16.4069 10.4849L23.6583 12.2769C25.2715 12.6756 26.2534 14.3096 25.848 15.9211L22.2223 30.3346C21.8193 31.9366 20.197 32.9114 18.5932 32.5151L11.3418 30.7231C9.72855 30.3245 8.74673 28.6904 9.15211 27.0789L12.7778 12.6655Z" fill="url(#paint1_linear_9_704)"/>
<rect x="8" y="12.6479" width="14" height="22" rx="3" fill="url(#paint2_linear_9_704)"/>
</g>
<defs>
<filter id="filter0_d_9_704" x="0" y="0" width="32" height="46" filterUnits="userSpaceOnUse" color-interpolation-filters="sRGB">
<feFlood flood-opacity="0" result="BackgroundImageFix"/>
<feColorMatrix in="SourceAlpha" type="matrix" values="0 0 0 0 0 0 0 0 0 0 0 0 0 0 0 0 0 0 127 0" result="hardAlpha"/>
<feOffset/>
<feGaussianBlur stdDeviation="1"/>
<feColorMatrix type="matrix" values="0 0 0 0 0.733333 0 0 0 0 0.733333 0 0 0 0 0.733333 0 0 0 0.5 0"/>
<feBlend mode="normal" in2="BackgroundImageFix" result="effect1_dropShadow_9_704"/>
<feBlend mode="normal" in="SourceGraphic" in2="effect1_dropShadow_9_704" result="shape"/>
</filter>
<linearGradient id="paint0_linear_9_704" x1="-0.778516" y1="-6.33555" x2="-0.778516" y2="44" gradientUnits="userSpaceOnUse">
<stop stop-color="#F5F4FF"/>
<stop offset="1" stop-color="#D2E7FF"/>
</linearGradient>
<linearGradient id="paint1_linear_9_704" x1="8.15312" y1="16.7422" x2="17.76" y2="37.0666" gradientUnits="userSpaceOnUse">
<stop stop-color="#FAD961"/>
<stop offset="0.338272" stop-color="#FF4D2A"/>
<stop offset="0.999796" stop-color="#A121F3"/>
<stop offset="1" stop-color="#9E1CF7"/>
</linearGradient>
<linearGradient id="paint2_linear_9_704" x1="29.8605" y1="28.7712" x2="14.1809" y2="-8.31265" gradientUnits="userSpaceOnUse">
<stop stop-color="#2B17E4"/>
<stop offset="0.529904" stop-color="#5937B9"/>
<stop offset="1" stop-color="#C86DD7"/>
</linearGradient>
</defs>
</svg>
