<svg width="17" height="17" viewBox="0 0 17 17" fill="none" xmlns="http://www.w3.org/2000/svg">
<circle cx="8.5" cy="8.5" r="8.5" fill="url(#paint0_linear_9_773)"/>
<path fill-rule="evenodd" clip-rule="evenodd" d="M5.6728 12.07H3.1228V7.99002H5.6728V12.07ZM13.5871 8.14132C13.5531 7.8596 13.3229 7.20239 12.5535 7.23299C12.02 7.25424 11.0077 7.42392 10.4373 7.13195C10.8309 5.57815 10.7362 3.40002 9.70389 3.40002C9.01136 3.40002 8.88015 4.168 8.67205 4.87435C8.14157 6.6772 7.23312 7.43157 6.20128 7.80048V12.4236C8.10508 12.7216 8.95792 13.6 10.7653 13.6C12.1547 13.6 12.733 12.8336 12.8929 12.5214C13.0528 12.2092 13.1147 11.9643 13.2194 11.5105C13.4002 10.7276 13.575 9.33485 13.5871 9.06764C13.5954 8.88293 13.6019 8.66049 13.5994 8.48336C13.5975 8.34504 13.5994 8.24373 13.5871 8.14132Z" fill="#5333BE"/>
<defs>
<linearGradient id="paint0_linear_9_773" x1="16.6729" y1="0.163548" x2="0" y2="0.163548" gradientUnits="userSpaceOnUse">
<stop stop-color="#F5F4FF"/>
<stop offset="1" stop-color="#D2E7FF"/>
</linearGradient>
</defs>
</svg>
