<svg width="23px" height="22px" viewBox="0 0 23 22" version="1.1" xmlns="http://www.w3.org/2000/svg" xmlns:xlink="http://www.w3.org/1999/xlink">
    <defs>
        <linearGradient x1="98.0759079%" y1="50%" x2="0%" y2="50%" id="linearGradient-1">
            <stop stop-color="#F5F4FF" offset="0%"></stop>
            <stop stop-color="#D2E7FF" offset="100%"></stop>
        </linearGradient>
    </defs>
    <g id="All_pages" stroke="none" stroke-width="1" fill="none" fill-rule="evenodd">
        <g id="Targemy---post---read-Copy-2" transform="translate(-1254.000000, -1641.000000)" fill="url(#linearGradient-1)" fill-rule="nonzero">
            <g id="Group" transform="translate(1230.000000, 1622.000000)">
                <g id="Group-3" transform="translate(24.000000, 19.000000)">
                    <g id="Shape-Copy" transform="translate(0.000000, 0.000000)">
                        <path d="M6.5,18.7 L4.4408921e-14,18.7 L4.4408921e-14,9.9 L6.5,9.9 L6.5,18.7 Z M22.9731527,10.2263333 C22.9023794,9.61868718 22.4233819,8.20118855 20.8218611,8.26718855 C19.7113769,8.31302188 17.6043052,8.679 16.4169552,8.04925 C17.2362538,4.69791667 17.0391157,0 14.8904916,0 C13.4490324,0 13.1759329,1.65641667 12.7427717,3.17991667 C11.6386176,7.06841667 9.74771986,8.6955 7.6,9.49116667 L7.6,19.4626667 C11.5626562,20.10525 13.3378032,22 17.099704,22 C19.9916654,22 21.1953857,20.3470261 21.5282466,19.6735741 C21.8611075,19.0001221 21.9898349,18.4718705 22.2079189,17.4931179 C22.5841694,15.8045195 22.9480928,12.8006064 22.9731527,12.2242766 C22.9904764,11.8258645 23.0040776,11.3461018 22.9988778,10.9640656 C22.9948171,10.66572 22.9988778,10.4472046 22.9731527,10.2263333 Z"></path>
                    </g>
                </g>
            </g>
        </g>
    </g>
</svg>