<svg width="148" height="33" viewBox="0 0 148 33" fill="none" xmlns="http://www.w3.org/2000/svg">
<circle cx="14" cy="17" r="14" fill="white"/>
<path fill-rule="evenodd" clip-rule="evenodd" d="M14 31C21.732 31 28 24.732 28 17C28 9.26801 21.732 3 14 3C6.26801 3 0 9.26801 0 17C0 24.732 6.26801 31 14 31ZM14 25.8571C18.8917 25.8571 22.8571 21.8917 22.8571 17C22.8571 12.1083 18.8917 8.14286 14 8.14286C9.10834 8.14286 5.14286 12.1083 5.14286 17C5.14286 21.8917 9.10834 25.8571 14 25.8571Z" fill="#5333BE"/>
<circle cx="13.9999" cy="16.9999" r="4.28571" fill="url(#paint0_linear_133_283)"/>
<path d="M47.4102 26H42.7812V12.6523H38.5977V8.86719H51.582V12.6523H47.4102V26ZM60.2422 12.4883C61.9219 12.4883 63.2344 12.9062 64.1797 13.7422C65.125 14.5703 65.5977 15.7539 65.5977 17.293V26H62.4219L61.543 24.2422H61.4492C61.0742 24.7109 60.6875 25.0938 60.2891 25.3906C59.8984 25.6797 59.4492 25.8906 58.9414 26.0234C58.4336 26.1641 57.8125 26.2344 57.0781 26.2344C56.3125 26.2344 55.625 26.0781 55.0156 25.7656C54.4062 25.4531 53.9258 24.9805 53.5742 24.3477C53.2227 23.7148 53.0469 22.9141 53.0469 21.9453C53.0469 20.5234 53.5391 19.4688 54.5234 18.7812C55.5078 18.0938 56.9336 17.707 58.8008 17.6211L61.0156 17.5508V17.3633C61.0156 16.7695 60.8672 16.3477 60.5703 16.0977C60.2812 15.8477 59.8906 15.7227 59.3984 15.7227C58.875 15.7227 58.2891 15.8164 57.6406 16.0039C57 16.1836 56.3555 16.418 55.707 16.707L54.3828 13.6836C55.1484 13.293 56.0156 12.9961 56.9844 12.793C57.9531 12.5898 59.0391 12.4883 60.2422 12.4883ZM61.0391 20.0703L59.9844 20.1172C59.1406 20.1484 58.5469 20.2969 58.2031 20.5625C57.8672 20.8203 57.6992 21.1914 57.6992 21.6758C57.6992 22.1289 57.8203 22.4648 58.0625 22.6836C58.3047 22.8945 58.625 23 59.0234 23C59.5781 23 60.0508 22.8242 60.4414 22.4727C60.8398 22.1211 61.0391 21.6641 61.0391 21.1016V20.0703ZM76.8242 12.4883C78.293 12.4883 79.4453 13.0781 80.2812 14.2578C81.1172 15.4297 81.5352 17.1211 81.5352 19.332C81.5352 20.8398 81.3242 22.1094 80.9023 23.1406C80.4805 24.1641 79.9023 24.9375 79.168 25.4609C78.4414 25.9766 77.6133 26.2344 76.6836 26.2344C76.0586 26.2344 75.5273 26.1562 75.0898 26C74.6602 25.8438 74.3008 25.6484 74.0117 25.4141C73.7305 25.1797 73.4922 24.9414 73.2969 24.6992H73.1562C73.1953 25.0039 73.2266 25.332 73.25 25.6836C73.2812 26.0352 73.2969 26.4453 73.2969 26.9141V31.7656H68.7148V12.7227H72.4414L73.0859 14.4102H73.2969C73.5156 14.0664 73.7812 13.75 74.0938 13.4609C74.4062 13.1641 74.7852 12.9297 75.2305 12.7578C75.6836 12.5781 76.2148 12.4883 76.8242 12.4883ZM75.1016 16.0859C74.6562 16.0859 74.3047 16.1914 74.0469 16.4023C73.7891 16.6133 73.6016 16.9336 73.4844 17.3633C73.375 17.7852 73.3125 18.3125 73.2969 18.9453V19.3086C73.2969 20.0117 73.3516 20.6055 73.4609 21.0898C73.5703 21.5664 73.7578 21.9297 74.0234 22.1797C74.2891 22.4219 74.6562 22.543 75.125 22.543C75.5078 22.543 75.8281 22.4336 76.0859 22.2148C76.3438 21.9961 76.5391 21.6484 76.6719 21.1719C76.8047 20.6953 76.8711 20.0664 76.8711 19.2852C76.8711 18.1211 76.7188 17.2969 76.4141 16.8125C76.1172 16.3281 75.6797 16.0859 75.1016 16.0859ZM94.0273 12.7227V16.1328H88.7422V26H84.1602V12.7227H94.0273ZM102.16 12.4883C103.449 12.4883 104.562 12.7148 105.5 13.168C106.438 13.6133 107.16 14.2852 107.668 15.1836C108.176 16.082 108.43 17.207 108.43 18.5586V20.5977H100.238C100.277 21.293 100.535 21.8633 101.012 22.3086C101.496 22.7539 102.207 22.9766 103.145 22.9766C103.973 22.9766 104.73 22.8945 105.418 22.7305C106.113 22.5664 106.828 22.3125 107.562 21.9688V25.2617C106.922 25.5977 106.223 25.8438 105.465 26C104.707 26.1562 103.75 26.2344 102.594 26.2344C101.258 26.2344 100.062 25.9961 99.0078 25.5195C97.9531 25.043 97.1211 24.3047 96.5117 23.3047C95.9102 22.3047 95.6094 21.0195 95.6094 19.4492C95.6094 17.8555 95.8828 16.5469 96.4297 15.5234C96.9766 14.4922 97.7422 13.7305 98.7266 13.2383C99.7109 12.7383 100.855 12.4883 102.16 12.4883ZM102.324 15.6055C101.785 15.6055 101.332 15.7773 100.965 16.1211C100.605 16.457 100.395 16.9883 100.332 17.7148H104.27C104.262 17.3242 104.184 16.9688 104.035 16.6484C103.887 16.3281 103.668 16.0742 103.379 15.8867C103.098 15.6992 102.746 15.6055 102.324 15.6055ZM128.469 12.7227V26H124.391V19.5664C124.391 18.9336 124.402 18.3125 124.426 17.7031C124.449 17.0938 124.484 16.5312 124.531 16.0156H124.461L121.32 26H118.203L115.051 15.9922H114.98C115.027 16.5156 115.062 17.0781 115.086 17.6797C115.109 18.2812 115.121 18.9414 115.121 19.6602V26H111.043V12.7227H117.289L119.785 20.7734L122.328 12.7227H128.469ZM135.828 12.7227V17.8906C135.828 18.1641 135.82 18.4492 135.805 18.7461C135.797 19.0352 135.781 19.3242 135.758 19.6133C135.742 19.9023 135.723 20.1836 135.699 20.457C135.684 20.7305 135.668 20.9844 135.652 21.2188L140.668 12.7227H145.66V26H141.488V21.1953C141.488 20.7812 141.492 20.3516 141.5 19.9062C141.516 19.4609 141.535 19.0273 141.559 18.6055C141.582 18.1836 141.613 17.8008 141.652 17.457L136.59 26H131.645V12.7227H135.828Z" fill="#5333BE"/>
<defs>
<linearGradient id="paint0_linear_133_283" x1="7.36332" y1="14.338" x2="10.6108" y2="22.9094" gradientUnits="userSpaceOnUse">
<stop stop-color="#00E3E6"/>
<stop offset="1" stop-color="#007635"/>
</linearGradient>
</defs>
</svg>
