<svg width="32" height="46" viewBox="0 0 32 46" fill="none" xmlns="http://www.w3.org/2000/svg">
<g filter="url(#filter0_d_9_706)">
<rect x="2" y="2" width="28" height="42" rx="5" fill="url(#paint0_linear_9_706)"/>
<rect x="2" y="2" width="28" height="42" rx="5" fill="url(#paint1_linear_9_706)"/>
<circle cx="16" cy="28" r="3" transform="rotate(-90 16 28)" fill="url(#paint2_linear_9_706)"/>
<path fill-rule="evenodd" clip-rule="evenodd" d="M16 19.4795L25 28.4795H7L16 19.4795Z" fill="url(#paint3_linear_9_706)"/>
<rect x="14" y="13" width="4" height="5" rx="2" fill="url(#paint4_linear_9_706)"/>
<path fill-rule="evenodd" clip-rule="evenodd" d="M10 21.4795C10 18.1658 12.6863 15.4795 16 15.4795C19.3137 15.4795 22 18.1658 22 21.4795V26.4795H10V21.4795Z" fill="url(#paint5_linear_9_706)"/>
</g>
<defs>
<filter id="filter0_d_9_706" x="0" y="0" width="32" height="46" filterUnits="userSpaceOnUse" color-interpolation-filters="sRGB">
<feFlood flood-opacity="0" result="BackgroundImageFix"/>
<feColorMatrix in="SourceAlpha" type="matrix" values="0 0 0 0 0 0 0 0 0 0 0 0 0 0 0 0 0 0 127 0" result="hardAlpha"/>
<feOffset/>
<feGaussianBlur stdDeviation="1"/>
<feColorMatrix type="matrix" values="0 0 0 0 0.733333 0 0 0 0 0.733333 0 0 0 0 0.733333 0 0 0 0.5 0"/>
<feBlend mode="normal" in2="BackgroundImageFix" result="effect1_dropShadow_9_706"/>
<feBlend mode="normal" in="SourceGraphic" in2="effect1_dropShadow_9_706" result="shape"/>
</filter>
<linearGradient id="paint0_linear_9_706" x1="-0.778516" y1="-6.33555" x2="-0.778516" y2="44" gradientUnits="userSpaceOnUse">
<stop stop-color="#F5F4FF"/>
<stop offset="1" stop-color="#D2E7FF"/>
</linearGradient>
<linearGradient id="paint1_linear_9_706" x1="-0.778516" y1="-6.33555" x2="-0.778516" y2="44" gradientUnits="userSpaceOnUse">
<stop stop-color="#F5F4FF"/>
<stop offset="1" stop-color="#D2E7FF"/>
</linearGradient>
<linearGradient id="paint2_linear_9_706" x1="22.3688" y1="29.3972" x2="19.3776" y2="18.2802" gradientUnits="userSpaceOnUse">
<stop stop-color="#2B17E4"/>
<stop offset="0.529904" stop-color="#5937B9"/>
<stop offset="1" stop-color="#C86DD7"/>
</linearGradient>
<linearGradient id="paint3_linear_9_706" x1="35.1063" y1="26.0754" x2="32.7433" y2="8.51052" gradientUnits="userSpaceOnUse">
<stop stop-color="#2B17E4"/>
<stop offset="0.529904" stop-color="#5937B9"/>
<stop offset="1" stop-color="#C86DD7"/>
</linearGradient>
<linearGradient id="paint4_linear_9_706" x1="20.2459" y1="16.6644" x2="17.244" y2="7.73912" gradientUnits="userSpaceOnUse">
<stop stop-color="#2B17E4"/>
<stop offset="0.529904" stop-color="#5937B9"/>
<stop offset="1" stop-color="#C86DD7"/>
</linearGradient>
<linearGradient id="paint5_linear_9_706" x1="28.7376" y1="23.5411" x2="23.6559" y2="2.93777" gradientUnits="userSpaceOnUse">
<stop stop-color="#2B17E4"/>
<stop offset="0.529904" stop-color="#5937B9"/>
<stop offset="1" stop-color="#C86DD7"/>
</linearGradient>
</defs>
</svg>
